<mxfile host="app.diagrams.net" agent="Mozilla/5.0 (X11; Linux x86_64) AppleWebKit/537.36 (KHTML, like Gecko) Chrome/141.0.0.0 Safari/537.36" version="28.2.7">
  <diagram name="Page-1" id="gfPaVF40kF7myJ7_kBsC">
    <mxGraphModel dx="1441" dy="725" grid="1" gridSize="10" guides="1" tooltips="1" connect="1" arrows="1" fold="1" page="1" pageScale="1" pageWidth="850" pageHeight="1100" math="0" shadow="0">
      <root>
        <mxCell id="0" />
        <mxCell id="1" parent="0" />
        <mxCell id="6Z6Axza8DGytBwFNUc3e-1" value="" style="whiteSpace=wrap;html=1;aspect=fixed;" vertex="1" parent="1">
          <mxGeometry x="80" y="140" width="800" height="800" as="geometry" />
        </mxCell>
        <mxCell id="6Z6Axza8DGytBwFNUc3e-2" value="" style="shape=card;whiteSpace=wrap;html=1;rotation=90;" vertex="1" parent="1">
          <mxGeometry x="180" y="40" width="40" height="240" as="geometry" />
        </mxCell>
        <mxCell id="6Z6Axza8DGytBwFNUc3e-5" value="Platforme Financiére d&#39;analyse&amp;nbsp;" style="text;html=1;whiteSpace=wrap;strokeColor=none;fillColor=none;align=center;verticalAlign=middle;rounded=0;" vertex="1" parent="1">
          <mxGeometry x="90" y="145" width="190" height="30" as="geometry" />
        </mxCell>
        <mxCell id="6Z6Axza8DGytBwFNUc3e-6" value="Investisseur&amp;nbsp;" style="shape=umlActor;verticalLabelPosition=bottom;verticalAlign=top;html=1;outlineConnect=0;" vertex="1" parent="1">
          <mxGeometry x="-30" y="280" width="30" height="60" as="geometry" />
        </mxCell>
        <mxCell id="6Z6Axza8DGytBwFNUc3e-17" style="edgeStyle=orthogonalEdgeStyle;rounded=0;orthogonalLoop=1;jettySize=auto;html=1;endArrow=none;endFill=0;" edge="1" parent="1" source="6Z6Axza8DGytBwFNUc3e-13" target="6Z6Axza8DGytBwFNUc3e-6">
          <mxGeometry relative="1" as="geometry">
            <mxPoint x="310" y="180" as="targetPoint" />
            <Array as="points">
              <mxPoint x="50" y="280" />
              <mxPoint x="50" y="310" />
            </Array>
          </mxGeometry>
        </mxCell>
        <mxCell id="6Z6Axza8DGytBwFNUc3e-30" style="edgeStyle=orthogonalEdgeStyle;rounded=0;orthogonalLoop=1;jettySize=auto;html=1;endArrow=none;endFill=0;" edge="1" parent="1" source="6Z6Axza8DGytBwFNUc3e-13">
          <mxGeometry relative="1" as="geometry">
            <mxPoint x="360" y="330" as="targetPoint" />
          </mxGeometry>
        </mxCell>
        <mxCell id="6Z6Axza8DGytBwFNUc3e-13" value="consulter les analyses prédictives&amp;nbsp;" style="ellipse;whiteSpace=wrap;html=1;" vertex="1" parent="1">
          <mxGeometry x="160" y="240" width="120" height="80" as="geometry" />
        </mxCell>
        <mxCell id="6Z6Axza8DGytBwFNUc3e-27" style="edgeStyle=orthogonalEdgeStyle;rounded=0;orthogonalLoop=1;jettySize=auto;html=1;entryX=0;entryY=0.75;entryDx=0;entryDy=0;endArrow=open;endFill=0;" edge="1" parent="1" source="6Z6Axza8DGytBwFNUc3e-14">
          <mxGeometry relative="1" as="geometry">
            <mxPoint x="390" y="205.00000000000023" as="targetPoint" />
            <Array as="points">
              <mxPoint x="360" y="390" />
              <mxPoint x="360" y="240" />
            </Array>
          </mxGeometry>
        </mxCell>
        <mxCell id="6Z6Axza8DGytBwFNUc3e-31" value="&amp;lt;&amp;lt;include&amp;gt;&amp;gt;" style="edgeLabel;html=1;align=center;verticalAlign=middle;resizable=0;points=[];" vertex="1" connectable="0" parent="6Z6Axza8DGytBwFNUc3e-27">
          <mxGeometry x="0.4345" relative="1" as="geometry">
            <mxPoint as="offset" />
          </mxGeometry>
        </mxCell>
        <mxCell id="6Z6Axza8DGytBwFNUc3e-14" value="consulter les graphiques et les recommandations" style="ellipse;whiteSpace=wrap;html=1;" vertex="1" parent="1">
          <mxGeometry x="165" y="350" width="120" height="80" as="geometry" />
        </mxCell>
        <mxCell id="6Z6Axza8DGytBwFNUc3e-18" style="edgeStyle=orthogonalEdgeStyle;rounded=0;orthogonalLoop=1;jettySize=auto;html=1;entryX=1;entryY=1;entryDx=0;entryDy=0;entryPerimeter=0;startArrow=none;startFill=0;" edge="1" parent="1" source="6Z6Axza8DGytBwFNUc3e-14" target="6Z6Axza8DGytBwFNUc3e-6">
          <mxGeometry relative="1" as="geometry" />
        </mxCell>
        <mxCell id="6Z6Axza8DGytBwFNUc3e-19" value="Analyste Financier&amp;nbsp;" style="shape=umlActor;verticalLabelPosition=bottom;verticalAlign=top;html=1;outlineConnect=0;" vertex="1" parent="1">
          <mxGeometry x="-30" y="480" width="30" height="60" as="geometry" />
        </mxCell>
        <mxCell id="6Z6Axza8DGytBwFNUc3e-22" style="edgeStyle=orthogonalEdgeStyle;rounded=0;orthogonalLoop=1;jettySize=auto;html=1;" edge="1" parent="1" source="6Z6Axza8DGytBwFNUc3e-20" target="6Z6Axza8DGytBwFNUc3e-19">
          <mxGeometry relative="1" as="geometry" />
        </mxCell>
        <mxCell id="6Z6Axza8DGytBwFNUc3e-20" value="génerer des rapports&amp;nbsp;&amp;nbsp;" style="ellipse;whiteSpace=wrap;html=1;" vertex="1" parent="1">
          <mxGeometry x="165" y="460" width="120" height="80" as="geometry" />
        </mxCell>
        <mxCell id="6Z6Axza8DGytBwFNUc3e-23" style="edgeStyle=orthogonalEdgeStyle;rounded=0;orthogonalLoop=1;jettySize=auto;html=1;" edge="1" parent="1" source="6Z6Axza8DGytBwFNUc3e-21" target="6Z6Axza8DGytBwFNUc3e-19">
          <mxGeometry relative="1" as="geometry" />
        </mxCell>
        <mxCell id="6Z6Axza8DGytBwFNUc3e-21" value="interpréter les tendances du marché&amp;nbsp;" style="ellipse;whiteSpace=wrap;html=1;" vertex="1" parent="1">
          <mxGeometry x="160" y="560" width="120" height="80" as="geometry" />
        </mxCell>
        <mxCell id="6Z6Axza8DGytBwFNUc3e-32" value="" style="shape=cylinder3;whiteSpace=wrap;html=1;boundedLbl=1;backgroundOutline=1;size=15;" vertex="1" parent="1">
          <mxGeometry x="980" y="290" width="60" height="80" as="geometry" />
        </mxCell>
        <mxCell id="6Z6Axza8DGytBwFNUc3e-36" style="edgeStyle=orthogonalEdgeStyle;rounded=0;orthogonalLoop=1;jettySize=auto;html=1;endArrow=none;endFill=0;" edge="1" parent="1" source="6Z6Axza8DGytBwFNUc3e-33" target="6Z6Axza8DGytBwFNUc3e-32">
          <mxGeometry relative="1" as="geometry" />
        </mxCell>
        <mxCell id="6Z6Axza8DGytBwFNUc3e-50" style="edgeStyle=orthogonalEdgeStyle;rounded=0;orthogonalLoop=1;jettySize=auto;html=1;entryX=0.5;entryY=0;entryDx=0;entryDy=0;" edge="1" parent="1" source="6Z6Axza8DGytBwFNUc3e-33" target="6Z6Axza8DGytBwFNUc3e-35">
          <mxGeometry relative="1" as="geometry" />
        </mxCell>
        <mxCell id="6Z6Axza8DGytBwFNUc3e-33" value="collecter les informations&lt;div&gt;financiéres (prix,tendaces historiques..)&lt;/div&gt;" style="ellipse;whiteSpace=wrap;html=1;" vertex="1" parent="1">
          <mxGeometry x="620" y="245" width="170" height="70" as="geometry" />
        </mxCell>
        <mxCell id="6Z6Axza8DGytBwFNUc3e-34" value="base données API&amp;nbsp;" style="text;html=1;whiteSpace=wrap;strokeColor=none;fillColor=none;align=center;verticalAlign=middle;rounded=0;" vertex="1" parent="1">
          <mxGeometry x="980" y="390" width="60" height="30" as="geometry" />
        </mxCell>
        <mxCell id="6Z6Axza8DGytBwFNUc3e-51" style="edgeStyle=orthogonalEdgeStyle;rounded=0;orthogonalLoop=1;jettySize=auto;html=1;entryX=0.5;entryY=0;entryDx=0;entryDy=0;" edge="1" parent="1" source="6Z6Axza8DGytBwFNUc3e-35" target="6Z6Axza8DGytBwFNUc3e-39">
          <mxGeometry relative="1" as="geometry" />
        </mxCell>
        <mxCell id="6Z6Axza8DGytBwFNUc3e-35" value="stocker , organiser et metrre a jour les données" style="ellipse;whiteSpace=wrap;html=1;" vertex="1" parent="1">
          <mxGeometry x="620" y="370" width="170" height="90" as="geometry" />
        </mxCell>
        <mxCell id="6Z6Axza8DGytBwFNUc3e-37" style="edgeStyle=orthogonalEdgeStyle;rounded=0;orthogonalLoop=1;jettySize=auto;html=1;entryX=0;entryY=1;entryDx=0;entryDy=-15;entryPerimeter=0;endArrow=none;endFill=0;" edge="1" parent="1" source="6Z6Axza8DGytBwFNUc3e-35" target="6Z6Axza8DGytBwFNUc3e-32">
          <mxGeometry relative="1" as="geometry" />
        </mxCell>
        <mxCell id="6Z6Axza8DGytBwFNUc3e-38" value="module IA" style="ellipse;shape=cloud;whiteSpace=wrap;html=1;" vertex="1" parent="1">
          <mxGeometry x="980" y="590" width="120" height="80" as="geometry" />
        </mxCell>
        <mxCell id="6Z6Axza8DGytBwFNUc3e-52" style="edgeStyle=orthogonalEdgeStyle;rounded=0;orthogonalLoop=1;jettySize=auto;html=1;entryX=0.936;entryY=0.3;entryDx=0;entryDy=0;entryPerimeter=0;" edge="1" parent="1" source="6Z6Axza8DGytBwFNUc3e-39" target="6Z6Axza8DGytBwFNUc3e-41">
          <mxGeometry relative="1" as="geometry" />
        </mxCell>
        <mxCell id="6Z6Axza8DGytBwFNUc3e-39" value="analyse les variations&amp;nbsp;" style="ellipse;whiteSpace=wrap;html=1;" vertex="1" parent="1">
          <mxGeometry x="645" y="500" width="120" height="80" as="geometry" />
        </mxCell>
        <mxCell id="6Z6Axza8DGytBwFNUc3e-40" value="Fournir des recommandations&amp;nbsp;" style="ellipse;whiteSpace=wrap;html=1;" vertex="1" parent="1">
          <mxGeometry x="330" y="730" width="140" height="70" as="geometry" />
        </mxCell>
        <mxCell id="6Z6Axza8DGytBwFNUc3e-55" style="edgeStyle=orthogonalEdgeStyle;rounded=0;orthogonalLoop=1;jettySize=auto;html=1;entryX=0;entryY=0;entryDx=0;entryDy=0;endArrow=none;endFill=0;startArrow=classic;startFill=1;" edge="1" parent="1" source="6Z6Axza8DGytBwFNUc3e-41" target="6Z6Axza8DGytBwFNUc3e-40">
          <mxGeometry relative="1" as="geometry" />
        </mxCell>
        <mxCell id="6Z6Axza8DGytBwFNUc3e-56" value="&amp;lt;&amp;lt;include&amp;gt;&amp;gt;" style="edgeLabel;html=1;align=center;verticalAlign=middle;resizable=0;points=[];" vertex="1" connectable="0" parent="6Z6Axza8DGytBwFNUc3e-55">
          <mxGeometry x="-0.192" y="1" relative="1" as="geometry">
            <mxPoint as="offset" />
          </mxGeometry>
        </mxCell>
        <mxCell id="6Z6Axza8DGytBwFNUc3e-41" value="Prédire les tendances" style="ellipse;whiteSpace=wrap;html=1;" vertex="1" parent="1">
          <mxGeometry x="380" y="560" width="140" height="80" as="geometry" />
        </mxCell>
        <mxCell id="6Z6Axza8DGytBwFNUc3e-42" style="edgeStyle=orthogonalEdgeStyle;rounded=0;orthogonalLoop=1;jettySize=auto;html=1;entryX=0.083;entryY=0.75;entryDx=0;entryDy=0;entryPerimeter=0;endArrow=none;endFill=0;" edge="1" parent="1" source="6Z6Axza8DGytBwFNUc3e-41" target="6Z6Axza8DGytBwFNUc3e-38">
          <mxGeometry relative="1" as="geometry" />
        </mxCell>
        <mxCell id="6Z6Axza8DGytBwFNUc3e-43" style="edgeStyle=orthogonalEdgeStyle;rounded=0;orthogonalLoop=1;jettySize=auto;html=1;entryX=0.083;entryY=0.625;entryDx=0;entryDy=0;entryPerimeter=0;endArrow=none;endFill=0;" edge="1" parent="1" source="6Z6Axza8DGytBwFNUc3e-40" target="6Z6Axza8DGytBwFNUc3e-38">
          <mxGeometry relative="1" as="geometry">
            <Array as="points">
              <mxPoint x="590" y="835" />
              <mxPoint x="590" y="700" />
              <mxPoint x="990" y="700" />
            </Array>
          </mxGeometry>
        </mxCell>
        <mxCell id="6Z6Axza8DGytBwFNUc3e-44" style="edgeStyle=orthogonalEdgeStyle;rounded=0;orthogonalLoop=1;jettySize=auto;html=1;entryX=0.154;entryY=0.268;entryDx=0;entryDy=0;entryPerimeter=0;endArrow=none;endFill=0;" edge="1" parent="1" source="6Z6Axza8DGytBwFNUc3e-39" target="6Z6Axza8DGytBwFNUc3e-38">
          <mxGeometry relative="1" as="geometry" />
        </mxCell>
        <mxCell id="6Z6Axza8DGytBwFNUc3e-62" value="authentifier" style="ellipse;whiteSpace=wrap;html=1;" vertex="1" parent="1">
          <mxGeometry x="380" y="150" width="140" height="70" as="geometry" />
        </mxCell>
      </root>
    </mxGraphModel>
  </diagram>
</mxfile>
